<?xml version="1.0" encoding="UTF-8"?>
<!DOCTYPE svg PUBLIC "-//W3C//DTD SVG 1.1//EN" "http://www.w3.org/Graphics/SVG/1.1/DTD/svg11.dtd">
<!-- Creator: CorelDRAW (Evaluation Version) -->
<svg xmlns="http://www.w3.org/2000/svg" xml:space="preserve" width="1.59455in" height="2.25589in" version="1.1" style="shape-rendering:geometricPrecision; text-rendering:geometricPrecision; image-rendering:optimizeQuality; fill-rule:evenodd; clip-rule:evenodd"
viewBox="0 0 271.32 383.85"
 xmlns:xlink="http://www.w3.org/1999/xlink"
 xmlns:xodm="http://www.corel.com/coreldraw/odm/2003">
 <defs>
  <style type="text/css">
   <![CDATA[
    .fil0 {fill:#b0c7aa}
   ]]>
  </style>
 </defs>
 <g id="Layer_x0020_1">
  <metadata id="CorelCorpID_0Corel-Layer"/>
  <path class="fil0" d="M121.95 367.25c0,-21.64 0,-52.11 0,-57.2 0,-5.09 -3.7,-14.73 -13.5,-14.73 -9.79,0 -13.42,8.66 -13.42,26.57 0,17.92 -19.59,28.28 -44.68,28.28l-50.35 0 -0 -137.41 53.07 0.07c11.6,-0.07 22.23,4.74 22.3,13.2 0.07,8.46 3.7,17.57 13.49,17.57 9.79,0 13.49,-9.03 13.49,-14.53l0 -74.31c0,-5.5 -3.7,-14.53 -13.49,-14.53 -9.79,0 -13.42,9.11 -13.49,17.57 -0.07,8.46 -10.7,13.27 -22.3,13.2l-53.08 0.07 0 -137.41 50.35 0c25.1,0 44.68,10.36 44.68,28.28 -0,17.92 3.63,26.58 13.42,26.58 9.79,0 13.49,-9.64 13.49,-14.73 0,-5.09 0,-35.56 0,-57.2 0,-11.46 -0.05,-15.02 -6.5,-16.11l0 -0.48 44.81 0 0 375.1 111.05 -105.85 0 114.6 -155.86 0 0 -0.48c6.47,-1.09 6.5,-4.64 6.5,-16.11z"/>
 </g>
</svg>
